<?xml version="1.0" encoding="UTF-8"?>
<svg id="Layer_2" data-name="Layer 2" xmlns="http://www.w3.org/2000/svg" viewBox="0 0 201.78 70.4">
  <defs>
    <style>
      .cls-1 {
        fill: #d7df23;
        stroke-width: 0px;
      }
    </style>
  </defs>
  <g id="Layer_1-2" data-name="Layer 1">
    <g>
      <polygon class="cls-1" points="113.11 70.24 114.47 70.24 114.47 67.49 117.22 67.49 117.22 66.3 114.47 66.3 114.47 64.27 117.38 64.27 117.38 63.03 113.11 63.03 113.11 70.24"/>
      <rect class="cls-1" x="123.72" y="63.03" width="1.36" height="7.21"/>
      <polygon class="cls-1" points="136.74 67.99 136.73 67.99 133.32 63.03 131.99 63.03 131.99 70.24 133.3 70.24 133.3 65.19 133.31 65.19 136.77 70.24 138.05 70.24 138.05 63.03 136.74 63.03 136.74 67.99"/>
      <path class="cls-1" d="m145.86,63.03l-2.74,7.21h1.41l.7-1.9h2.83l.71,1.9h1.42l-2.77-7.21h-1.56Zm-.24,4.17l1.02-2.74,1.03,2.74h-2.04Z"/>
      <polygon class="cls-1" points="160.2 67.99 160.19 67.99 156.77 63.03 155.44 63.03 155.44 70.24 156.75 70.24 156.75 65.19 156.76 65.19 160.22 70.24 161.5 70.24 161.5 63.03 160.2 63.03 160.2 67.99"/>
      <path class="cls-1" d="m166.56,66.63c0,2.28,1.71,3.77,3.67,3.77.83,0,1.46-.22,1.96-.49v-1.39c-.57.38-1.1.62-1.83.62-1.27,0-2.41-.98-2.41-2.51s1.14-2.5,2.41-2.5c.73,0,1.26.21,1.83.59v-1.36c-.49-.27-1.12-.49-1.96-.49-1.95,0-3.67,1.48-3.67,3.77Z"/>
      <rect class="cls-1" x="178.19" y="63.03" width="1.35" height="7.21"/>
      <path class="cls-1" d="m187.79,63.03l-2.74,7.21h1.41l.7-1.9h2.83l.71,1.9h1.42l-2.77-7.21h-1.56Zm-.24,4.17l1.02-2.74,1.03,2.74h-2.04Z"/>
      <polygon class="cls-1" points="198.73 63.03 197.37 63.03 197.37 70.24 201.78 70.24 201.78 69 198.73 69 198.73 63.03"/>
      <path class="cls-1" d="m160.92,29.28c-.07,2.79-.16,5.36-2.78,6.94-2.73,1.65-5.52,1.59-8.26-.09-.96-.59-1.9-1.26-2.92-1.72-4.38-1.95-8.7-2.04-12.72.86-2.55,1.85-4.14,4.4-4.77,7.69.41-.13.42-.14.61-.18,3.34-.78,6.37.38,8.82,2.68,1.1,1.03,2.3,1.95,3.41,2.98,4.15,3.85,11.53,3.62,15.34,1.37,4.92-2.9,7.13-7.35,7.02-12.96-.06-3.33-1.26-6.27-3.76-8.84,0,.58.01.86,0,1.28Z"/>
      <path class="cls-1" d="m148.97,29.09c.62,1.12.91,1.14,1.5.05,1.17-1.97,4.63-4.13,5.2-4.88.57-.76,2.01-5.18,1.97-8.26-5.29,2.91-10.46,2.93-15.8,0-.06,3.08,1.22,7.13,1.93,8.21.72,1.08,4.13,2.95,5.2,4.88Z"/>
      <path class="cls-1" d="m18.05,15.13C7.94,15.13,0,22.45,0,33.18s7.94,18.05,18.05,18.05,18.05-7.44,18.05-18.05-7.81-18.05-18.05-18.05Zm0,27.16c-4.09,0-8-3.29-8-9.12s3.91-9.12,8-9.12,8.06,3.29,8.06,9.12-3.97,9.12-8.06,9.12Z"/>
      <path class="cls-1" d="m63.04,36.34c0,3.91-2.17,5.95-5.83,5.95s-5.64-2.05-5.64-5.89V16h-9.92v20.4c0,8.68,5.83,14.82,15.57,14.82s15.75-6.14,15.75-14.82V16h-9.92v20.34Z"/>
      <path class="cls-1" d="m131.88,16h-9.05v-2.67c0-3.29,1.86-4.71,5.46-4.71,1.86,0,3.6.37,4.84.74V1.05c-2.23-.68-4.22-1.05-6.57-1.05-8.81,0-13.52,6.08-13.52,12.53v3.47h-4.71v8.19h4.71v26.17h9.92v-26.17h8.93v-8.19Z"/>
      <polygon class="cls-1" points="201.78 50.35 189.87 32.8 201.28 16 190.61 16 184.1 26.73 184.04 26.73 177.47 16 166.61 16 178.21 33.24 166.49 50.35 177.22 50.35 183.79 39.56 183.92 39.56 190.49 50.35 201.78 50.35"/>
      <path class="cls-1" d="m92.96,36.53v-12.34h9.18v-8.19h-9.18V6.2c-3.18.88-6.35.92-9.56.11v9.69s-4.89,0-4.89,0v8.19h4.84v12.96c0,8.56,4.9,13.95,14.01,13.95,2.42,0,3.97-.25,5.4-.56v-8.31c-1.12.19-2.17.31-3.1.31-3.85,0-6.7-1.67-6.7-6.02Z"/>
    </g>
  </g>
</svg>