<?xml version="1.0" encoding="UTF-8"?>
<svg id="Layer_2" data-name="Layer 2" xmlns="http://www.w3.org/2000/svg" viewBox="0 0 52.81 35.14">
  <defs>
    <style>
      .cls-1 {
        fill: #58595b;
        stroke-width: 0px;
      }
    </style>
  </defs>
  <g id="Layer_1-2" data-name="Layer 1">
    <path class="cls-1" d="m47.17,0c3.75,3.86,5.55,8.28,5.64,13.27.16,8.41-3.16,15.1-10.54,19.44-5.71,3.37-16.8,3.71-23.02-2.06-1.66-1.54-3.46-2.92-5.11-4.46-3.68-3.45-8.23-5.18-13.23-4.02-.29.07-.3.08-.92.27.94-4.94,3.33-8.76,7.16-11.53,6.02-4.36,12.51-4.21,19.08-1.29,1.54.68,2.94,1.69,4.38,2.58,4.11,2.52,8.29,2.61,12.39.14,3.92-2.37,4.07-6.23,4.17-10.41.01-.63,0-1.06,0-1.92"/>
  </g>
</svg>