<?xml version="1.0" encoding="UTF-8"?>
<svg id="Layer_2" data-name="Layer 2" xmlns="http://www.w3.org/2000/svg" viewBox="0 0 199.44 199.44">
  <defs>
    <style>
      .cls-1 {
        fill: #d7df28;
        stroke-width: 0px;
      }
    </style>
  </defs>
  <g id="Layer_1-2" data-name="Layer 1">
    <g>
      <path class="cls-1" d="m99.72,0c-27.08,0-30.48.11-41.11.6-10.61.48-17.86,2.17-24.21,4.64-6.56,2.55-12.12,5.96-17.66,11.5-5.54,5.54-8.95,11.1-11.5,17.66-2.47,6.34-4.15,13.59-4.64,24.21-.49,10.64-.6,14.03-.6,41.11s.11,30.48.6,41.11c.48,10.61,2.17,17.86,4.64,24.21,2.55,6.56,5.96,12.12,11.5,17.66,5.54,5.54,11.1,8.95,17.66,11.5,6.34,2.46,13.59,4.15,24.21,4.63,10.64.49,14.03.6,41.11.6s30.48-.11,41.11-.6c10.61-.48,17.86-2.17,24.21-4.63,6.56-2.55,12.12-5.96,17.66-11.5,5.54-5.54,8.95-11.11,11.5-17.66,2.46-6.34,4.15-13.59,4.63-24.21.49-10.64.6-14.03.6-41.11s-.11-30.48-.6-41.11c-.48-10.61-2.17-17.86-4.63-24.21-2.55-6.56-5.96-12.12-11.5-17.66-5.54-5.54-11.11-8.95-17.66-11.5-6.34-2.47-13.59-4.15-24.21-4.64-10.64-.49-14.03-.6-41.11-.6Zm0,17.97c26.63,0,29.78.1,40.3.58,9.72.44,15,2.07,18.52,3.43,4.65,1.81,7.98,3.97,11.47,7.46,3.49,3.49,5.65,6.81,7.46,11.47,1.37,3.51,2.99,8.79,3.43,18.52.48,10.52.58,13.67.58,40.3s-.1,29.78-.58,40.3c-.44,9.72-2.07,15-3.43,18.52-1.81,4.65-3.97,7.98-7.46,11.47-3.49,3.49-6.81,5.65-11.47,7.46-3.51,1.37-8.79,2.99-18.52,3.43-10.51.48-13.67.58-40.3.58s-29.78-.1-40.3-.58c-9.72-.44-15-2.07-18.52-3.43-4.65-1.81-7.98-3.97-11.47-7.46-3.49-3.49-5.65-6.81-7.46-11.47-1.37-3.51-2.99-8.79-3.43-18.52-.48-10.52-.58-13.67-.58-40.3s.1-29.78.58-40.3c.44-9.72,2.07-15,3.43-18.52,1.81-4.65,3.97-7.98,7.46-11.47,3.49-3.49,6.81-5.65,11.47-7.46,3.51-1.37,8.79-2.99,18.52-3.43,10.52-.48,13.67-.58,40.3-.58Z"/>
      <path class="cls-1" d="m99.72,132.96c-18.36,0-33.24-14.88-33.24-33.24s14.88-33.24,33.24-33.24,33.24,14.88,33.24,33.24-14.88,33.24-33.24,33.24Zm0-84.45c-28.28,0-51.21,22.93-51.21,51.21s22.93,51.21,51.21,51.21,51.21-22.93,51.21-51.21-22.93-51.21-51.21-51.21Z"/>
      <path class="cls-1" d="m164.92,46.49c0,6.61-5.36,11.97-11.97,11.97s-11.97-5.36-11.97-11.97,5.36-11.97,11.97-11.97,11.97,5.36,11.97,11.97Z"/>
    </g>
  </g>
</svg>